<?xml version="1.0" encoding="UTF-8" standalone="no"?>
<!-- Generator: Adobe Illustrator 16.0.0, SVG Export Plug-In . SVG Version: 6.00 Build 0)  -->

<svg
   xmlns:dc="http://purl.org/dc/elements/1.1/"
   xmlns:cc="http://creativecommons.org/ns#"
   xmlns:rdf="http://www.w3.org/1999/02/22-rdf-syntax-ns#"
   xmlns:svg="http://www.w3.org/2000/svg"
   xmlns="http://www.w3.org/2000/svg"
   xmlns:sodipodi="http://sodipodi.sourceforge.net/DTD/sodipodi-0.dtd"
   xmlns:inkscape="http://www.inkscape.org/namespaces/inkscape"
   version="1.1"
   id="Layer_1"
   x="0px"
   y="0px"
   width="200"
   height="200"
   viewBox="0 0 200 200"
   enable-background="new 0 0 512 512"
   xml:space="preserve"
   inkscape:version="0.91 r13725"
   sodipodi:docname="cloud2.svg"><metadata
     id="metadata9"><rdf:RDF><cc:Work
         rdf:about=""><dc:format>image/svg+xml</dc:format><dc:type
           rdf:resource="http://purl.org/dc/dcmitype/StillImage" /><dc:title /></cc:Work></rdf:RDF></metadata><defs
     id="defs7" /><sodipodi:namedview
     pagecolor="#ffffff"
     bordercolor="#666666"
     borderopacity="1"
     objecttolerance="10"
     gridtolerance="10"
     guidetolerance="10"
     inkscape:pageopacity="0"
     inkscape:pageshadow="2"
     inkscape:window-width="1920"
     inkscape:window-height="1018"
     id="namedview5"
     showgrid="false"
     inkscape:zoom="3.6875"
     inkscape:cx="22.483767"
     inkscape:cy="92.548859"
     inkscape:window-x="-8"
     inkscape:window-y="-8"
     inkscape:window-maximized="1"
     inkscape:current-layer="Layer_1" /><path
     d="m 126.54582,36.229303 c -12.53074,0 -24.0376,5.921013 -31.326532,15.629896 -2.568099,-0.621972 -5.189154,-0.937555 -7.853062,-0.937555 -18.901087,0 -34.282143,15.381055 -34.282143,34.282143 0,0.478418 0.0095,0.94704 0.02881,1.415663 -14.161585,4.208747 -24.516012,17.35166 -24.516012,32.86646 0,18.9011 15.381047,34.28215 34.282134,34.28215 l 83.256635,0 c 21.60816,0 39.1796,-17.57143 39.1796,-39.17959 0,-14.28096 -7.85306,-27.184815 -19.94364,-34.014307 0.23906,-1.702472 0.35384,-3.434027 0.35384,-5.165273 0,-21.598362 -17.57144,-39.179587 -39.1796,-39.179587 l 0,0 z"
     id="path3"
     inkscape:connector-curvature="0"
     style="fill:#eef7ff;stroke:#0088aa;stroke-width:3;stroke-miterlimit:4;stroke-dasharray:none;fill-opacity:1" /></svg>