<?xml version="1.0" encoding="UTF-8" standalone="no"?>
<!-- Generator: Adobe Illustrator 16.0.0, SVG Export Plug-In . SVG Version: 6.00 Build 0)  -->

<svg
   xmlns:dc="http://purl.org/dc/elements/1.1/"
   xmlns:cc="http://creativecommons.org/ns#"
   xmlns:rdf="http://www.w3.org/1999/02/22-rdf-syntax-ns#"
   xmlns:svg="http://www.w3.org/2000/svg"
   xmlns="http://www.w3.org/2000/svg"
   xmlns:sodipodi="http://sodipodi.sourceforge.net/DTD/sodipodi-0.dtd"
   xmlns:inkscape="http://www.inkscape.org/namespaces/inkscape"
   version="1.1"
   id="Layer_1"
   x="0px"
   y="0px"
   width="200"
   height="200"
   viewBox="0 0 200 200"
   enable-background="new 0 0 512 512"
   xml:space="preserve"
   inkscape:version="0.91 r13725"
   sodipodi:docname="cloud3.svg"><metadata
     id="metadata9"><rdf:RDF><cc:Work
         rdf:about=""><dc:format>image/svg+xml</dc:format><dc:type
           rdf:resource="http://purl.org/dc/dcmitype/StillImage" /><dc:title /></cc:Work></rdf:RDF></metadata><defs
     id="defs7" /><sodipodi:namedview
     pagecolor="#ffffff"
     bordercolor="#666666"
     borderopacity="1"
     objecttolerance="10"
     gridtolerance="10"
     guidetolerance="10"
     inkscape:pageopacity="0"
     inkscape:pageshadow="2"
     inkscape:window-width="1920"
     inkscape:window-height="1018"
     id="namedview5"
     showgrid="false"
     inkscape:zoom="3.6875"
     inkscape:cx="19.965602"
     inkscape:cy="122.96553"
     inkscape:window-x="-8"
     inkscape:window-y="-8"
     inkscape:window-maximized="1"
     inkscape:current-layer="Layer_1" /><path
     d="m 163.4244,76.25044 c -1.54109,-23.867349 -21.38503,-42.749969 -45.64189,-42.749969 -20.612939,0 -38.039026,13.635219 -43.756349,32.377488 -3.203476,-1.212915 -6.674139,-1.882097 -10.30248,-1.882097 -14.84605,0 -27.087457,11.117215 -28.874944,25.479139 -0.107083,-0.0016 -0.212779,-0.008 -0.320208,-0.008 -12.774742,0 -23.130937,10.355851 -23.130937,23.130929 0,12.77509 10.355849,23.13059 23.130937,23.13059 1.519952,0 3.004211,-0.15109 4.442379,-0.43076 6.983257,9.38068 18.156954,15.45737 30.750452,15.45737 10.8223,0 20.594909,-4.48847 27.561883,-11.70357 5.222807,5.22974 12.441367,8.46544 20.416097,8.46544 10.89194,0 20.37103,-6.03684 25.28229,-14.94552 4.04627,2.01829 8.6096,3.15566 13.43803,3.15566 16.65052,0 30.14885,-13.49764 30.14885,-30.14815 0,-14.238902 -9.87172,-26.170494 -23.14411,-29.328579 z"
     id="path3"
     inkscape:connector-curvature="0"
     style="fill:#eef7ff;stroke:#0088aa;stroke-width:3;stroke-miterlimit:4;stroke-dasharray:none;fill-opacity:1" /></svg>