<?xml version="1.0" encoding="UTF-8" standalone="no"?>
<!-- Created with Inkscape (http://www.inkscape.org/) -->

<svg
   xmlns:dc="http://purl.org/dc/elements/1.1/"
   xmlns:cc="http://creativecommons.org/ns#"
   xmlns:rdf="http://www.w3.org/1999/02/22-rdf-syntax-ns#"
   xmlns:svg="http://www.w3.org/2000/svg"
   xmlns="http://www.w3.org/2000/svg"
   xmlns:sodipodi="http://sodipodi.sourceforge.net/DTD/sodipodi-0.dtd"
   xmlns:inkscape="http://www.inkscape.org/namespaces/inkscape"
   width="2000"
   height="300"
   viewBox="0 0 2000 300.00001"
   id="svg4230"
   version="1.1"
   inkscape:version="0.91 r13725"
   sodipodi:docname="footer.svg">
  <defs
     id="defs4232" />
  <sodipodi:namedview
     id="base"
     pagecolor="#ffffff"
     bordercolor="#666666"
     borderopacity="1.0"
     inkscape:pageopacity="0.0"
     inkscape:pageshadow="2"
     inkscape:zoom="0.5"
     inkscape:cx="786.41855"
     inkscape:cy="494.1767"
     inkscape:document-units="px"
     inkscape:current-layer="layer1"
     showgrid="false"
     units="px"
     inkscape:window-width="1920"
     inkscape:window-height="1018"
     inkscape:window-x="-8"
     inkscape:window-y="-8"
     inkscape:window-maximized="1"
     showguides="true"
     inkscape:guide-bbox="true">
    <sodipodi:guide
       position="161.92745,0"
       orientation="0,1"
       id="guide4151" />
    <sodipodi:guide
       position="-1162.4835,1148.3415"
       orientation="1,0"
       id="guide4153" />
    <sodipodi:guide
       position="172.53405,299.81329"
       orientation="0,1"
       id="guide4155" />
    <sodipodi:guide
       position="1999.6016,5.4921877"
       orientation="1,0"
       id="guide4157" />
    <sodipodi:guide
       position="1983,0"
       orientation="0,1"
       id="guide4163" />
    <sodipodi:guide
       position="1993.2512,5.9662137"
       orientation="0,1"
       id="guide4165" />
    <sodipodi:guide
       position="1993.0352,5.6914065"
       orientation="1,0"
       id="guide4167" />
    <sodipodi:guide
       position="2006.294,293.80288"
       orientation="0,1"
       id="guide4169" />
    <sodipodi:guide
       position="-859.84185,1094.6013"
       orientation="1,0"
       id="guide4188" />
  </sodipodi:namedview>
  <metadata
     id="metadata4235">
    <rdf:RDF>
      <cc:Work
         rdf:about="">
        <dc:format>image/svg+xml</dc:format>
        <dc:type
           rdf:resource="http://purl.org/dc/dcmitype/StillImage" />
        <dc:title />
      </cc:Work>
    </rdf:RDF>
  </metadata>
  <g
     inkscape:label="ziemia"
     inkscape:groupmode="layer"
     id="layer1"
     transform="translate(0,-752.36216)">
    <path
       style="opacity:1;fill:#c87137;stroke:#c87137;stroke-width:12.01248074;stroke-linejoin:miter;stroke-miterlimit:4;stroke-dasharray:none;stroke-opacity:1"
       d="m 2.8292638,752.56089 1996.8577362,0.0161 0,299.81721 -1996.8643577,-0.036 z"
       id="rect4246"
       inkscape:connector-curvature="0"
       sodipodi:nodetypes="ccccc" />
    <path
       style="fill:#784421;fill-opacity:1;fill-rule:evenodd;stroke:#784421;stroke-width:13.30000019;stroke-linecap:butt;stroke-linejoin:miter;stroke-miterlimit:4;stroke-dasharray:none;stroke-opacity:1"
       d="M -3.1706743,753.21403 2005.651,753.07658"
       id="path4161-9"
       inkscape:connector-curvature="0"
       sodipodi:nodetypes="cc" />
  </g>
  <g
     inkscape:groupmode="layer"
     id="layer5"
     inkscape:label="pas"
     transform="translate(0,-660)" />
  <g
     inkscape:groupmode="layer"
     id="layer6"
     inkscape:label="cienie kamieni"
     transform="translate(0,-660)">
    <ellipse
       style="opacity:0.5;fill:#000000;fill-opacity:1;stroke:#000000;stroke-width:12;stroke-linejoin:miter;stroke-miterlimit:4;stroke-dasharray:none;stroke-dashoffset:0;stroke-opacity:1"
       id="path4890"
       cx="389.5"
       cy="897.5"
       rx="39.5"
       ry="7.5" />
    <ellipse
       style="opacity:0.5;fill:#000000;fill-opacity:1;stroke:#000000;stroke-width:9.2817831;stroke-linejoin:miter;stroke-miterlimit:4;stroke-dasharray:none;stroke-dashoffset:0;stroke-opacity:1"
       id="path4898"
       cx="1563.426"
       cy="719.67664"
       rx="21.859108"
       ry="3.8591084" />
    <ellipse
       style="opacity:0.5;fill:#000000;fill-opacity:1;stroke:#000000;stroke-width:12;stroke-linejoin:miter;stroke-miterlimit:4;stroke-dasharray:none;stroke-dashoffset:0;stroke-opacity:1"
       id="path4900"
       cx="1566.3452"
       cy="915.44366"
       rx="31"
       ry="4" />
    <ellipse
       style="opacity:0.5;fill:#000000;fill-opacity:1;stroke:#000000;stroke-width:13.60359573;stroke-linejoin:miter;stroke-miterlimit:4;stroke-dasharray:none;stroke-dashoffset:0;stroke-opacity:1"
       id="path4900-6"
       cx="760.13971"
       cy="833.42792"
       rx="40.804806"
       ry="3.9053087" />
    <ellipse
       style="opacity:0.5;fill:#000000;fill-opacity:1;stroke:#000000;stroke-width:17.89653397;stroke-linejoin:miter;stroke-miterlimit:4;stroke-dasharray:none;stroke-dashoffset:0;stroke-opacity:1"
       id="path4900-7"
       cx="1169.5546"
       cy="771.90961"
       rx="52.093365"
       ry="5.294374" />
  </g>
  <g
     inkscape:groupmode="layer"
     id="layer7"
     inkscape:label="kamienie"
     transform="translate(0,-660)">
    <path
       style="opacity:1;fill:#aa4400;fill-opacity:1;stroke:#552200;stroke-width:5.19327545;stroke-linejoin:miter;stroke-miterlimit:4;stroke-dasharray:none;stroke-dashoffset:0;stroke-opacity:1"
       d="m 347.61876,879.7422 c -3.98591,-16.653 7.59213,-9.2398 42.55116,-22.4508 34.95906,-13.2112 38.87439,12.4575 38.87439,12.4575 10.9483,12.6032 -7.35892,30.8986 -41.7895,28.2785 -33.99924,-2.5876 -35.65025,-1.6324 -39.63605,-18.2852 z"
       id="path4855-7-0"
       inkscape:connector-curvature="0"
       sodipodi:nodetypes="sssss" />
    <path
       style="opacity:1;fill:#aa4400;fill-opacity:1;stroke:#552200;stroke-width:3.31758928;stroke-linejoin:miter;stroke-miterlimit:4;stroke-dasharray:none;stroke-dashoffset:0;stroke-opacity:1"
       d="m 1588.2815,707.82582 c 10e-5,10.4874 2.2759,12.6925 -22.4273,12.6925 -24.7033,0 -25.6134,-9.5442 -25.6134,-9.5442 -5.1399,-9.6681 4.5045,-21.0904 26.4099,-12.0628 21.6308,8.9145 21.6309,-1.5728 21.6308,8.9145 z"
       id="path4855"
       inkscape:connector-curvature="0"
       sodipodi:nodetypes="sssss" />
    <path
       style="opacity:1;fill:#aa4400;fill-opacity:1;stroke:#552200;stroke-width:3.98125911;stroke-linejoin:miter;stroke-miterlimit:4;stroke-dasharray:none;stroke-dashoffset:0;stroke-opacity:1"
       d="m 1530.3979,905.71935 c -3.4253,-11.389 3.0869,-4.9513 33.1286,-13.9863 30.0418,-9.0351 34.2658,0.9968 34.2658,0.9968 9.4083,8.6193 1.4102,24.551 -28.1774,22.7591 -29.217,-1.7696 -35.7918,1.6192 -39.217,-9.7696 z"
       id="path4855-7"
       inkscape:connector-curvature="0"
       sodipodi:nodetypes="sssss" />
    <path
       style="opacity:1;fill:#aa4400;fill-opacity:1;stroke:#552200;stroke-width:5.19327545;stroke-linejoin:miter;stroke-miterlimit:4;stroke-dasharray:none;stroke-dashoffset:0;stroke-opacity:1"
       d="m 1114.9206,758.75335 c -3.9859,-16.653 10.4205,-24.7961 45.3796,-38.0071 34.959,-13.2112 65.7444,32.2564 65.7444,32.2564 10.9483,12.6032 -37.0574,26.656 -71.488,24.0359 -33.9992,-2.5876 -35.6502,-1.6324 -39.636,-18.2852 z"
       id="path4855-7-0-7"
       inkscape:connector-curvature="0"
       sodipodi:nodetypes="sssss" />
    <path
       style="opacity:1;fill:#aa4400;fill-opacity:1;stroke:#552200;stroke-width:3.31758928;stroke-linejoin:miter;stroke-miterlimit:4;stroke-dasharray:none;stroke-dashoffset:0;stroke-opacity:1"
       d="m 804.55152,821.8413 c -37.18506,24.00233 -88.67564,10.43325 -88.67564,10.43325 -6.48135,-8.82512 28.73112,-49.79964 51.71007,-44.02783 26.04218,4.76086 48.43087,25.69225 36.96557,33.59458 z"
       id="path4855-5"
       inkscape:connector-curvature="0"
       sodipodi:nodetypes="cscc" />
  </g>
  <g
     inkscape:groupmode="layer"
     id="layer9"
     inkscape:label="cienie roslin"
     transform="translate(0,-660)">
    <path
       style="opacity:0.5;fill:#000000;fill-opacity:1;stroke:#000000;stroke-width:2.47694683;stroke-linejoin:round;stroke-miterlimit:4;stroke-dasharray:none;stroke-dashoffset:0;stroke-opacity:1"
       d="m 197.51637,924.01047 c 17.9753,4.1287 18.2652,-13.6024 30.4412,7.8738 5.0594,-4.6637 -15.1448,-19.2037 35.6809,3.161 -17.1911,-13.276 -38.524,-15.5383 -28.4746,-24.7524 l -15.9347,-1.6517 c 7.2931,14.3261 -13.5061,5.0381 -21.7127,15.3689 z"
       id="rect4906-5"
       inkscape:connector-curvature="0"
       sodipodi:nodetypes="cccccc" />
    <path
       style="opacity:0.5;fill:#000000;fill-opacity:1;stroke:#000000;stroke-width:3.02514076;stroke-linejoin:round;stroke-miterlimit:4;stroke-dasharray:none;stroke-dashoffset:0;stroke-opacity:1"
       d="m 1685.2489,807.54288 c 18.2288,2.8254 6.9596,-18.1515 19.3683,11.2471 5.1117,-7.7767 -6.052,-29.3268 45.5255,-5.6072 -17.464,-16.4263 -39.6641,-9.9634 -29.5106,-25.3377 l -16.1528,0.4502 c 7.4373,19.7607 -10.948,2.5634 -19.2304,19.2476 z"
       id="rect4906-7-4"
       inkscape:connector-curvature="0"
       sodipodi:nodetypes="cccccc" />
  </g>
  <g
     inkscape:groupmode="layer"
     id="layer8"
     inkscape:label="rosliny"
     transform="translate(0,-660)">
    <path
       style="opacity:1;fill:#008000;fill-opacity:1;stroke:#005500;stroke-width:4.06421185;stroke-linejoin:round;stroke-miterlimit:4;stroke-dasharray:none;stroke-dashoffset:0;stroke-opacity:1"
       d="m 200.92529,855.54985 c 16.8991,-5.6035 17.7443,45.0839 28.5903,-12.0056 4.9439,15.0441 -13.7322,49.5859 33.7066,3.2396 -15.8618,31.9706 -36.0024,31.0955 -26.184,60.8368 l -15.0453,-0.7622 c 6.4496,-38.3674 -12.9593,-19.0144 -21.0676,-51.3086 z"
       id="rect4906"
       inkscape:connector-curvature="0"
       sodipodi:nodetypes="cccccc" />
    <path
       style="opacity:1;fill:#008000;fill-opacity:1;stroke:#005500;stroke-width:4.8299861;stroke-linejoin:round;stroke-miterlimit:4;stroke-dasharray:none;stroke-dashoffset:0;stroke-opacity:1"
       d="m 1686.0899,736.68909 c 17.6504,-7.5771 7.2194,47.5282 18.5477,-29.6692 5.1637,20.3429 -5.1503,76.9503 44.3977,14.2801 -16.567,43.2312 -38.3103,26.4915 -28.0553,66.7083 l -15.7142,-1.0307 c 6.7362,-51.8811 -10.7071,-6.6197 -19.1759,-50.2885 z"
       id="rect4906-7"
       inkscape:connector-curvature="0"
       sodipodi:nodetypes="cccccc" />
  </g>
</svg>
