<?xml version="1.0" encoding="UTF-8" standalone="no"?>
<!-- Created with Inkscape (http://www.inkscape.org/) -->

<svg
   xmlns:dc="http://purl.org/dc/elements/1.1/"
   xmlns:cc="http://creativecommons.org/ns#"
   xmlns:rdf="http://www.w3.org/1999/02/22-rdf-syntax-ns#"
   xmlns:svg="http://www.w3.org/2000/svg"
   xmlns="http://www.w3.org/2000/svg"
   xmlns:sodipodi="http://sodipodi.sourceforge.net/DTD/sodipodi-0.dtd"
   xmlns:inkscape="http://www.inkscape.org/namespaces/inkscape"
   width="2000"
   height="300"
   viewBox="0 0 2000 300.00001"
   id="svg4230"
   version="1.1"
   inkscape:version="0.91 r13725"
   sodipodi:docname="ziemia.svg">
  <defs
     id="defs4232" />
  <sodipodi:namedview
     id="base"
     pagecolor="#ffffff"
     bordercolor="#666666"
     borderopacity="1.0"
     inkscape:pageopacity="0.0"
     inkscape:pageshadow="2"
     inkscape:zoom="0.5"
     inkscape:cx="621.63994"
     inkscape:cy="253.03157"
     inkscape:document-units="px"
     inkscape:current-layer="layer9"
     showgrid="false"
     units="px"
     inkscape:window-width="1920"
     inkscape:window-height="1018"
     inkscape:window-x="-8"
     inkscape:window-y="-8"
     inkscape:window-maximized="1" />
  <metadata
     id="metadata4235">
    <rdf:RDF>
      <cc:Work
         rdf:about="">
        <dc:format>image/svg+xml</dc:format>
        <dc:type
           rdf:resource="http://purl.org/dc/dcmitype/StillImage" />
        <dc:title></dc:title>
      </cc:Work>
    </rdf:RDF>
  </metadata>
  <g
     inkscape:label="ziemia"
     inkscape:groupmode="layer"
     id="layer1"
     transform="translate(0,-752.36216)">
    <path
       style="opacity:1;fill:#c87137;stroke:#784421;stroke-width:12;stroke-linejoin:miter;stroke-miterlimit:4;stroke-dasharray:none"
       d="M 0.41485417,965.23923 C 1319.0603,825.17506 1909.1195,819.18333 1999.0044,925.21484 l 0,126.14716 -1998.0037594,0 z"
       id="rect4246"
       inkscape:connector-curvature="0"
       sodipodi:nodetypes="ccccc" />
  </g>
  <g
     inkscape:groupmode="layer"
     id="layer5"
     inkscape:label="pas"
     transform="translate(0,-660)">
    <path
       style="opacity:1;fill:#e6e6e6;stroke:#6c6753;stroke-width:12;stroke-linejoin:miter;stroke-miterlimit:4;stroke-dasharray:none"
       d="M 542.625,819.125 C 745.5983,798.70644 940.34794,786.51153 1135.5607,773.85355 1088.7011,849.21619 1056.5536,912.88671 1047,958.9375 l -565,0.125 c 4.71122,-41.14171 13.85454,-83.02358 60.625,-139.9375 z"
       id="rect4848"
       inkscape:connector-curvature="0"
       sodipodi:nodetypes="ccccc" />
    <path
       style="fill:none;fill-rule:evenodd;stroke:#6c6753;stroke-width:12;stroke-linecap:butt;stroke-linejoin:miter;stroke-miterlimit:4;stroke-dasharray:36, 12;stroke-dashoffset:0;stroke-opacity:1"
       d="m 770,960 c 0.0271,-56.21874 21.03009,-114.47936 59.07107,-166"
       id="path4851"
       inkscape:connector-curvature="0"
       sodipodi:nodetypes="cc" />
  </g>
  <g
     inkscape:groupmode="layer"
     id="layer6"
     inkscape:label="cienie kamieni"
     transform="translate(0,-660)">
    <ellipse
       style="opacity:0.5;fill:#000000;fill-opacity:1;stroke:#000000;stroke-width:12;stroke-linejoin:miter;stroke-miterlimit:4;stroke-dasharray:none;stroke-dashoffset:0;stroke-opacity:1"
       id="path4890"
       cx="389.5"
       cy="897.5"
       rx="39.5"
       ry="7.5" />
    <ellipse
       style="opacity:0.5;fill:#000000;fill-opacity:1;stroke:#000000;stroke-width:9.2817831;stroke-linejoin:miter;stroke-miterlimit:4;stroke-dasharray:none;stroke-dashoffset:0;stroke-opacity:1"
       id="path4898"
       cx="1232.5"
       cy="821.5"
       rx="21.859108"
       ry="3.8591084" />
    <ellipse
       style="opacity:0.5;fill:#000000;fill-opacity:1;stroke:#000000;stroke-width:12;stroke-linejoin:miter;stroke-miterlimit:4;stroke-dasharray:none;stroke-dashoffset:0;stroke-opacity:1"
       id="path4900"
       cx="1566.3452"
       cy="915.44366"
       rx="31"
       ry="4" />
  </g>
  <g
     inkscape:groupmode="layer"
     id="layer7"
     inkscape:label="kamienie"
     transform="translate(0,-660)">
    <path
       style="opacity:1;fill:#aa4400;fill-opacity:1;stroke:#552200;stroke-width:5.19327545;stroke-linejoin:miter;stroke-miterlimit:4;stroke-dasharray:none;stroke-dashoffset:0;stroke-opacity:1"
       d="m 347.61876,879.7422 c -3.98591,-16.653 7.59213,-9.2398 42.55116,-22.4508 34.95906,-13.2112 38.87439,12.4575 38.87439,12.4575 10.9483,12.6032 -7.35892,30.8986 -41.7895,28.2785 -33.99924,-2.5876 -35.65025,-1.6324 -39.63605,-18.2852 z"
       id="path4855-7-0"
       inkscape:connector-curvature="0"
       sodipodi:nodetypes="sssss" />
    <path
       style="opacity:1;fill:#aa4400;fill-opacity:1;stroke:#552200;stroke-width:3.31758928;stroke-linejoin:miter;stroke-miterlimit:4;stroke-dasharray:none;stroke-dashoffset:0;stroke-opacity:1"
       d="m 1257.3555,809.6492 c 1e-4,10.4874 2.2759,12.6925 -22.4273,12.6925 -24.7033,0 -25.6134,-9.5442 -25.6134,-9.5442 -5.1399,-9.6681 4.5045,-21.0904 26.4099,-12.0628 21.6308,8.9145 21.6309,-1.5728 21.6308,8.9145 z"
       id="path4855"
       inkscape:connector-curvature="0"
       sodipodi:nodetypes="sssss" />
    <path
       style="opacity:1;fill:#aa4400;fill-opacity:1;stroke:#552200;stroke-width:3.98125911;stroke-linejoin:miter;stroke-miterlimit:4;stroke-dasharray:none;stroke-dashoffset:0;stroke-opacity:1"
       d="m 1530.3979,905.71935 c -3.4253,-11.389 3.0869,-4.9513 33.1286,-13.9863 30.0418,-9.0351 34.2658,0.9968 34.2658,0.9968 9.4083,8.6193 1.4102,24.551 -28.1774,22.7591 -29.217,-1.7696 -35.7918,1.6192 -39.217,-9.7696 z"
       id="path4855-7"
       inkscape:connector-curvature="0"
       sodipodi:nodetypes="sssss" />
  </g>
  <g
     inkscape:groupmode="layer"
     id="layer9"
     inkscape:label="cienie roslin"
     transform="translate(0,-660)">
    <path
       style="opacity:0.5;fill:#000000;fill-opacity:1;stroke:#000000;stroke-width:2.47694683;stroke-linejoin:round;stroke-miterlimit:4;stroke-dasharray:none;stroke-dashoffset:0;stroke-opacity:1"
       d="m 1055.944,916.9394 c 17.9753,4.1287 18.2652,-13.6024 30.4412,7.8738 5.0594,-4.6637 -15.1448,-19.2037 35.6809,3.161 -17.1911,-13.276 -38.524,-15.5383 -28.4746,-24.7524 l -15.9347,-1.6517 c 7.2931,14.3261 -13.5061,5.0381 -21.7127,15.3689 z"
       id="rect4906-5"
       inkscape:connector-curvature="0"
       sodipodi:nodetypes="cccccc" />
    <path
       style="opacity:0.5;fill:#000000;fill-opacity:1;stroke:#000000;stroke-width:3.02514076;stroke-linejoin:round;stroke-miterlimit:4;stroke-dasharray:none;stroke-dashoffset:0;stroke-opacity:1"
       d="m 1419.3768,820.2708 c 18.2288,2.8254 6.9596,-18.1515 19.3683,11.2471 5.1117,-7.7767 -6.052,-29.3268 45.5255,-5.6072 -17.464,-16.4263 -39.6641,-9.9634 -29.5106,-25.3377 l -16.1528,0.4502 c 7.4373,19.7607 -10.948,2.5634 -19.2304,19.2476 z"
       id="rect4906-7-4"
       inkscape:connector-curvature="0"
       sodipodi:nodetypes="cccccc" />
  </g>
  <g
     inkscape:groupmode="layer"
     id="layer8"
     inkscape:label="rosliny"
     transform="translate(0,-660)">
    <path
       style="opacity:1;fill:#008000;fill-opacity:1;stroke:#005500;stroke-width:4.06421185;stroke-linejoin:round;stroke-miterlimit:4;stroke-dasharray:none;stroke-dashoffset:0;stroke-opacity:1"
       d="m 1056.5245,849.893 c 16.8991,-5.6035 17.7443,45.0839 28.5903,-12.0056 4.9439,15.0441 -13.7322,49.5859 33.7066,3.2396 -15.8618,31.9706 -36.0024,31.0955 -26.184,60.8368 l -15.0453,-0.7622 c 6.4496,-38.3674 -12.9593,-19.0144 -21.0676,-51.3086 z"
       id="rect4906"
       inkscape:connector-curvature="0"
       sodipodi:nodetypes="cccccc" />
    <path
       style="opacity:1;fill:#008000;fill-opacity:1;stroke:#005500;stroke-width:4.8299861;stroke-linejoin:round;stroke-miterlimit:4;stroke-dasharray:none;stroke-dashoffset:0;stroke-opacity:1"
       d="m 1421.632,746.58858 c 17.6504,-7.5771 7.2194,47.5282 18.5477,-29.6692 5.1637,20.3429 -5.1503,76.9503 44.3977,14.2801 -16.567,43.2312 -38.3103,26.4915 -28.0553,66.7083 l -15.7142,-1.0307 c 6.7362,-51.8811 -10.7071,-6.6197 -19.1759,-50.2885 z"
       id="rect4906-7"
       inkscape:connector-curvature="0"
       sodipodi:nodetypes="cccccc" />
  </g>
</svg>
